<?xml version="1.0" encoding="utf-8"?>
<!-- Generator: Adobe Illustrator 24.0.2, SVG Export Plug-In . SVG Version: 6.00 Build 0)  -->
<svg version="1.1" id="Capa_1" xmlns="http://www.w3.org/2000/svg" xmlns:xlink="http://www.w3.org/1999/xlink" x="0px" y="0px"
	 viewBox="0 0 104.1 119.1" style="enable-background:new 0 0 104.1 119.1;" xml:space="preserve">
<style type="text/css">
	.st0{fill:#FB727C;}
	.st1{fill:#FFFFFF;}
</style>
<title>Logo Tell Me</title>
<g>
	<path class="st0" d="M104.1,52c0-28.7-23.3-52-52-52S0,23.2,0,52c0,28.6,23.1,51.9,51.7,52l0.3,15.2l32.5-26.6l0,0
		C96.4,83.1,104.1,68.4,104.1,52z"/>
	<g>
		<circle class="st1" cx="34.7" cy="36.5" r="7.6"/>
		<path class="st1" d="M51.2,81.3c14.6,0,26.4-11.8,26.4-26.4H24.8C24.8,69.4,36.6,81.3,51.2,81.3z"/>
		<path class="st1" d="M75.4,45.5c-0.4,0-0.9-0.1-1.3-0.4L64,38.3c-0.6-0.4-1-1.1-1-1.9c0-0.7,0.4-1.4,1-1.9l10.1-6.9
			c1-0.7,2.4-0.4,3.1,0.6c0.7,1,0.4,2.4-0.6,3.1l-7.3,5l7.3,4.9c1,0.7,1.3,2.1,0.6,3.1C76.8,45.2,76.1,45.5,75.4,45.5z"/>
	</g>
</g>
</svg>
