<svg id="Capa_1" data-name="Capa 1" xmlns="http://www.w3.org/2000/svg" viewBox="0 0 242.38 242.38"><defs><style>.cls-1{fill:#c4c4c4;}.cls-2{fill:#471f54;}</style></defs><title>iconGoogle</title><circle class="cls-1" cx="121.19" cy="121.19" r="121.19"/><path class="cls-2" d="M126.37,54.79c2.08.25,4.17.48,6.25.77a61.68,61.68,0,0,1,18,5.44,63.35,63.35,0,0,1,16,10.93L148.07,90.55c-1.25-1-2.68-2.16-4.18-3.23A34.92,34.92,0,0,0,126,80.92a38.36,38.36,0,0,0-29,9.41,40.5,40.5,0,0,0-10.86,46.82,40.08,40.08,0,0,0,10.72,14.69,38.23,38.23,0,0,0,20.14,9.3,40.92,40.92,0,0,0,24.82-3.95,30.7,30.7,0,0,0,16.66-21.64,5.11,5.11,0,0,0,.07-.85h-36V108.82H185a77.23,77.23,0,0,1-1.53,34.73c-3.61,12.41-10.15,22.9-20.4,30.93a59.94,59.94,0,0,1-28.37,12.1c-2.66.41-5.35.67-8,1h-8c-.41-.09-.82-.18-1.24-.25-3.72-.6-7.51-.94-11.17-1.83a64.27,64.27,0,0,1-27.78-14.7,66.11,66.11,0,0,1-22.1-54.33,65.92,65.92,0,0,1,28-49.57,64,64,0,0,1,28.45-11.36c2-.28,3.9-.51,5.85-.76Z"/></svg>